<?xml version="1.0" encoding="utf-8"?>
<!-- Generator: Adobe Illustrator 23.0.1, SVG Export Plug-In . SVG Version: 6.00 Build 0)  -->
<svg version="1.1" id="Layer_1" xmlns="http://www.w3.org/2000/svg" xmlns:xlink="http://www.w3.org/1999/xlink" x="0px" y="0px"
	 viewBox="0 0 20 20" style="enable-background:new 0 0 20 20;" xml:space="preserve">
<style type="text/css">
	.st0{fill:#BB5555;}
</style>
<g id="path" transform="translate(-2.3 -1.9)">
	<path id="path-2" class="st0" d="M5.2,4.8c1.9-1.9,4.4-3,7.1-2.9c2.7,0,5.2,1,7.1,2.9c1.9,1.8,3,4.4,2.9,7.1c0,2.7-1,5.2-2.9,7.1
		c-1.8,1.9-4.4,3-7.1,2.9c-2.7,0-5.2-1-7.1-2.9C1.3,15.1,1.3,8.7,5.2,4.8z M4.5,13.8h3.4c-0.1-0.7-0.1-1.3-0.1-2c0-0.7,0-1.3,0.1-2
		H4.5c-0.2,0.7-0.3,1.3-0.3,2C4.2,12.5,4.3,13.1,4.5,13.8z M8.3,7.8c0.3-1.2,0.8-2.5,1.4-3.6C7.8,4.8,6.2,6.1,5.3,7.8H8.3z
		 M5.3,15.8c1,1.7,2.5,3,4.4,3.6c-0.6-1.1-1.1-2.3-1.4-3.6H5.3z M14.6,13.8c0.1-0.7,0.1-1.3,0.1-2c0-0.7,0-1.3-0.1-2H9.9
		c-0.1,0.7-0.1,1.3-0.1,2c0,0.7,0,1.3,0.1,2H14.6z M12.2,3.8c-0.9,1.2-1.5,2.6-1.9,4h3.8C13.7,6.4,13.1,5,12.2,3.8L12.2,3.8z
		 M12.2,19.8c0.9-1.2,1.5-2.6,1.9-4h-3.8C10.7,17.2,11.4,18.6,12.2,19.8L12.2,19.8z M19.2,7.8c-1-1.7-2.5-3-4.4-3.6
		c0.6,1.1,1.1,2.3,1.4,3.6H19.2z M14.8,19.4c1.9-0.6,3.5-1.9,4.4-3.6h-3C15.9,17,15.4,18.3,14.8,19.4L14.8,19.4z M16.6,13.8H20
		c0.4-1.3,0.4-2.7,0-4h-3.4c0.1,0.7,0.1,1.3,0.1,2C16.7,12.5,16.7,13.1,16.6,13.8L16.6,13.8z"/>
</g>
</svg>
