<svg xmlns="http://www.w3.org/2000/svg" width="30" height="20.455" viewBox="0 0 30 20.455">
  <path id="path" d="M228.664,1224.364a16.007,16.007,0,0,1,18.273,0,16.287,16.287,0,0,1,5.864,7.364,16.08,16.08,0,0,1-24.136,7.364,16.287,16.287,0,0,1-5.864-7.364A15.437,15.437,0,0,1,228.664,1224.364Zm4.227,12.273a6.616,6.616,0,0,0,4.773,2.046,6.189,6.189,0,0,0,4.773-2.046,7.211,7.211,0,0,0,2.045-4.773,6.4,6.4,0,0,0-2.045-4.773,7.211,7.211,0,0,0-4.773-2.045,6.19,6.19,0,0,0-4.773,2.045,7.212,7.212,0,0,0-2.045,4.773A6.615,6.615,0,0,0,232.891,1236.636Zm2.045-7.772a3.954,3.954,0,1,1-1.227,2.864A3.924,3.924,0,0,1,234.936,1228.864Z" transform="translate(-222.8 -1221.5)" fill="#b1b1b1"/>
</svg>
