<svg xmlns="http://www.w3.org/2000/svg" width="30" height="25.792" viewBox="0 0 30 25.792">
  <path id="path" d="M261.093,1221.765l1.765-1.765,24.027,24.027-1.765,1.765-2.036-2.036c-1.222-1.222-2.036-1.9-2.579-2.579a14.2,14.2,0,0,1-5.973,1.086,15.4,15.4,0,0,1-9.1-2.851,16.212,16.212,0,0,1-5.837-7.33,16.512,16.512,0,0,1,5.158-6.787l-2.172-2.172C261.636,1222.172,261.229,1221.9,261.093,1221.765Zm7.6,7.466a6.608,6.608,0,0,0-.814,2.987,6.161,6.161,0,0,0,2.036,4.751,7.178,7.178,0,0,0,4.751,2.036,6.189,6.189,0,0,0,2.986-.814l-2.036-2.036a2.31,2.31,0,0,1-.95.136,4.175,4.175,0,0,1-4.072-4.072,2.649,2.649,0,0,1,.136-.95Zm5.973-3.8a5.324,5.324,0,0,0-2.443.543l-2.986-2.986a13.829,13.829,0,0,1,5.43-.95,15.4,15.4,0,0,1,9.1,2.851,16.212,16.212,0,0,1,5.837,7.33,17.918,17.918,0,0,1-4.615,6.38l-3.937-3.937a7.926,7.926,0,0,0,.543-2.443,6.162,6.162,0,0,0-2.036-4.751A7.241,7.241,0,0,0,274.668,1225.43Zm-.136,2.715h.136a4.175,4.175,0,0,1,4.072,4.073v.271Z" transform="translate(-259.6 -1220)" fill="#b1b1b1"/>
</svg>
